<svg xmlns="http://www.w3.org/2000/svg" width="800" height="800" viewBox="0 0 800 800">
  <defs>
    <filter id="soft" x="-10%" y="-10%" width="120%" height="120%">
      <feGaussianBlur stdDeviation="2.1"/>
    </filter>
    <filter id="grain">
      <feTurbulence type="fractalNoise" baseFrequency="0.9" numOctaves="3" stitchTiles="stitch"/>
      <feColorMatrix type="saturate" values="0"/>
      <feComponentTransfer><feFuncA type="linear" slope="0.10"/></feComponentTransfer>
      <feComposite operator="in" in2="SourceGraphic"/>
    </filter>
  </defs>
  <rect width="800" height="800" fill="#E9E2D2"/>
  <g filter="url(#soft)">
    <rect x="306" y="-40" width="45" height="880" rx="23" fill="#6A6F43" opacity="0.17"/>
    <rect x="256" y="-40" width="32" height="880" rx="16" fill="#6A6F43" opacity="0.13"/>
    <rect x="80" y="-40" width="18" height="880" rx="9" fill="#6A6F43" opacity="0.12"/>
    <rect x="557" y="-40" width="37" height="880" rx="18" fill="#6A6F43" opacity="0.12"/>
    <rect x="186" y="-40" width="45" height="880" rx="23" fill="#6A6F43" opacity="0.11"/>
    <rect x="14" y="-40" width="26" height="880" rx="13" fill="#6A6F43" opacity="0.15"/>
    <rect x="564" y="-40" width="39" height="880" rx="20" fill="#6A6F43" opacity="0.12"/>
    <path d="M932.8,815.6 Q917.6,878.7 884.1,921.1 Q850.6,963.6 818.8,920.2 Q787.0,876.8 750.9,853.7 Q714.8,830.6 704.2,802.0 Q693.6,773.4 697.9,695.9 Q702.3,618.5 746.4,579.4 Q790.6,540.2 825.3,559.2 Q859.9,578.2 876.4,602.5 Q893.0,626.8 920.5,689.6 Q948.0,752.4 932.8,815.6 Z" fill="#C7B291" opacity="0.81"/>
    <path d="M861.1,102.6 Q853.2,180.3 813.9,214.0 Q774.7,247.7 738.7,235.9 Q702.7,224.2 681.2,155.8 Q659.7,87.4 623.2,27.6 Q586.6,-32.3 652.4,-80.0 Q718.3,-127.7 753.1,-123.8 Q787.9,-119.9 830.4,-95.4 Q872.9,-71.0 870.9,-23.0 Q868.9,25.0 861.1,102.6 Z" fill="#C7B291" opacity="0.92"/>
    <path d="M527.9,104.0 Q547.9,152.5 493.3,206.2 Q438.7,259.9 381.3,241.4 Q324.0,222.9 296.8,184.8 Q269.7,146.7 289.9,69.0 Q310.0,-8.7 339.1,-46.8 Q368.2,-84.8 402.6,-80.7 Q437.0,-76.7 460.0,-65.0 Q483.0,-53.4 495.4,1.1 Q507.9,55.5 527.9,104.0 Z" fill="#C7B291" opacity="0.94"/>
    <path d="M210.8,539.4 Q199.5,582.0 163.2,576.3 Q126.9,570.6 97.2,548.1 Q67.6,525.5 76.1,485.7 Q84.5,445.9 99.2,414.6 Q113.9,383.3 147.4,396.3 Q180.9,409.2 201.5,453.1 Q222.2,496.9 210.8,539.4 Z" fill="#6A6F43" opacity="0.88"/>
    <path d="M170.5,481.2 Q159.9,525.5 115.3,555.5 Q70.8,585.4 43.0,545.1 Q15.1,504.8 31.2,445.6 Q47.2,386.4 67.4,365.7 Q87.5,345.0 118.6,332.9 Q149.7,320.8 165.4,378.9 Q181.0,436.9 170.5,481.2 Z" fill="#C7B291" opacity="0.97"/>
    <path d="M828.8,741.9 Q789.3,785.1 761.5,810.6 Q733.7,836.0 681.6,838.7 Q629.4,841.5 593.8,820.3 Q558.3,799.1 587.0,726.4 Q615.7,653.8 644.5,602.2 Q673.2,550.5 703.1,514.2 Q733.0,477.9 783.2,510.0 Q833.5,542.2 850.9,620.4 Q868.3,698.7 828.8,741.9 Z" fill="#C7B291" opacity="0.89"/>
    <path d="M921.5,372.0 Q910.8,464.3 852.1,506.9 Q793.3,549.5 743.1,518.6 Q692.9,487.6 658.5,422.4 Q624.1,357.2 627.2,273.1 Q630.3,189.0 655.7,149.2 Q681.1,109.5 748.6,113.9 Q816.1,118.4 839.5,136.0 Q862.8,153.6 897.6,216.7 Q932.3,279.7 921.5,372.0 Z" fill="#C7B291" opacity="0.88"/>
    <path d="M632.1,6.4 Q618.2,57.8 578.4,63.3 Q538.6,68.7 517.1,43.3 Q495.6,17.8 499.5,-27.8 Q503.3,-73.4 524.2,-89.2 Q545.1,-105.0 577.1,-103.5 Q609.0,-102.0 627.5,-73.6 Q646.0,-45.1 632.1,6.4 Z" fill="#C7B291" opacity="0.85"/>
    <path d="M395.7,268.1 Q393.3,365.4 368.9,381.9 Q344.5,398.3 298.7,405.8 Q252.9,413.3 225.2,353.9 Q197.5,294.5 188.4,257.1 Q179.4,219.8 195.3,157.7 Q211.2,95.6 240.6,50.2 Q270.0,4.7 300.0,3.8 Q330.0,2.9 355.2,32.8 Q380.4,62.7 389.3,116.8 Q398.1,170.8 395.7,268.1 Z" fill="#6A6F43" opacity="0.94"/>
    <path d="M538.6,539.1 Q530.5,604.4 503.6,623.8 Q476.7,643.2 447.3,661.8 Q418.0,680.4 387.1,646.8 Q356.2,613.2 331.2,565.5 Q306.3,517.8 324.8,436.1 Q343.3,354.4 359.6,304.3 Q375.9,254.1 421.5,308.1 Q467.1,362.0 519.9,348.9 Q572.7,335.7 559.7,404.7 Q546.8,473.7 538.6,539.1 Z" fill="#6A6F43" opacity="0.83"/>
    <path d="M683.9,827.3 Q678.5,871.7 646.8,896.7 Q615.1,921.8 574.0,894.5 Q532.8,867.2 534.8,789.9 Q536.7,712.6 577.3,694.9 Q617.8,677.2 656.2,676.5 Q694.7,675.8 692.0,729.4 Q689.3,783.0 683.9,827.3 Z" fill="#C7B291" opacity="0.92"/>
    <path d="M942.3,228.2 Q883.2,300.8 832.6,311.4 Q782.0,322.1 755.2,279.6 Q728.5,237.1 718.1,165.5 Q707.7,93.9 756.5,25.4 Q805.3,-43.2 874.6,-14.5 Q944.0,14.2 972.7,84.9 Q1001.3,155.6 942.3,228.2 Z" fill="#6A6F43" opacity="0.96"/>
    <path d="M106.1,569.0 Q80.8,611.8 61.1,657.8 Q41.3,703.8 20.7,696.3 Q0.0,688.7 -47.9,661.5 Q-95.9,634.3 -85.3,590.2 Q-74.7,546.2 -83.5,465.6 Q-92.3,385.0 -51.2,403.7 Q-10.1,422.4 13.7,407.4 Q37.6,392.3 61.3,429.8 Q85.1,467.4 108.2,496.9 Q131.4,526.3 106.1,569.0 Z" fill="#C7B291" opacity="0.93"/>
    <path d="M660.2,581.6 Q629.4,625.3 620.9,693.7 Q612.4,762.1 558.6,765.5 Q504.8,768.9 471.9,699.3 Q439.0,629.7 428.5,568.7 Q418.0,507.7 430.6,437.9 Q443.1,368.0 479.9,290.3 Q516.7,212.6 559.7,254.9 Q602.7,297.2 625.9,320.9 Q649.1,344.7 670.1,441.2 Q691.0,537.8 660.2,581.6 Z" fill="#C7B291" opacity="0.86"/>
    <path d="M786.9,491.7 Q771.0,544.9 750.3,613.6 Q729.5,682.3 681.6,617.7 Q633.7,553.2 600.9,475.6 Q568.1,398.1 589.5,307.9 Q610.8,217.6 657.9,222.6 Q704.9,227.6 746.9,264.3 Q789.0,301.0 795.8,369.7 Q802.7,438.5 786.9,491.7 Z" fill="#C7B291" opacity="0.81"/>
    <path d="M885.0,331.0 Q885.7,371.3 854.7,423.0 Q823.8,474.7 783.5,443.6 Q743.3,412.5 729.3,369.2 Q715.4,325.9 737.7,276.7 Q760.0,227.6 794.0,207.6 Q828.0,187.7 845.0,201.5 Q862.0,215.2 873.2,253.0 Q884.4,290.7 885.0,331.0 Z" fill="#C7B291" opacity="0.92"/>
    <path d="M282.1,206.6 Q275.4,223.8 261.9,235.8 Q248.3,247.9 238.1,258.3 Q227.9,268.6 209.6,249.4 Q191.4,230.2 192.6,211.9 Q193.8,193.6 186.2,182.1 Q178.6,170.5 191.1,149.1 Q203.7,127.8 212.8,115.4 Q221.9,103.0 235.7,121.2 Q249.4,139.5 256.5,146.2 Q263.6,152.8 276.2,171.1 Q288.8,189.4 282.1,206.6 Z" fill="#6A6F43" opacity="0.73"/>
    <path d="M402.5,319.0 Q399.0,339.1 386.1,355.0 Q373.1,371.0 362.8,361.3 Q352.4,351.5 342.3,343.4 Q332.1,335.3 322.2,321.3 Q312.2,307.2 314.2,284.2 Q316.1,261.3 330.4,257.3 Q344.7,253.4 360.7,254.6 Q376.8,255.8 387.0,264.7 Q397.2,273.5 401.6,286.3 Q406.0,299.0 402.5,319.0 Z" fill="#6A6F43" opacity="0.93"/>
    <path d="M213.3,528.0 Q195.0,558.6 171.2,575.0 Q147.4,591.4 126.4,561.2 Q105.4,531.1 106.8,495.5 Q108.3,459.8 127.2,432.4 Q146.1,405.0 171.9,433.8 Q197.8,462.5 214.7,480.0 Q231.6,497.5 213.3,528.0 Z" fill="#C7B291" opacity="0.88"/>
    <path d="M678.7,77.8 Q660.6,89.9 647.7,114.9 Q634.7,139.9 615.2,126.3 Q595.7,112.8 590.2,90.1 Q584.7,67.4 570.9,36.7 Q557.0,6.0 573.9,-4.2 Q590.8,-14.4 618.4,-36.4 Q646.0,-58.3 662.0,-29.2 Q678.0,-0.0 687.4,32.8 Q696.8,65.7 678.7,77.8 Z" fill="#C7B291" opacity="0.90"/>
    <path d="M551.5,730.6 Q551.7,760.2 538.8,765.2 Q525.9,770.2 509.1,764.0 Q492.3,757.8 486.2,733.3 Q480.0,708.7 477.0,693.8 Q474.1,678.9 476.7,651.0 Q479.3,623.0 499.0,619.2 Q518.7,615.4 530.2,640.9 Q541.6,666.4 546.5,683.7 Q551.4,701.0 551.5,730.6 Z" fill="#E9E2D2" opacity="0.86"/>
    <path d="M122.7,62.0 Q122.1,80.7 116.9,86.6 Q111.7,92.5 99.1,104.4 Q86.4,116.4 77.6,102.9 Q68.8,89.5 59.2,60.9 Q49.6,32.4 60.8,24.1 Q72.1,15.8 77.9,4.7 Q83.7,-6.5 94.5,-8.3 Q105.3,-10.1 111.7,1.4 Q118.1,12.9 120.7,28.1 Q123.2,43.3 122.7,62.0 Z" fill="#C7B291" opacity="0.88"/>
    <path d="M665.8,103.0 Q673.5,138.5 644.0,150.2 Q614.5,161.9 594.3,154.7 Q574.1,147.6 568.3,128.0 Q562.5,108.4 560.8,64.5 Q559.1,20.7 570.7,-1.8 Q582.3,-24.3 598.0,-14.4 Q613.6,-4.4 628.9,11.1 Q644.3,26.7 651.2,47.1 Q658.1,67.5 665.8,103.0 Z" fill="#6A6F43" opacity="0.83"/>
    <path d="M108.4,671.8 Q106.1,709.6 86.8,711.2 Q67.6,712.7 60.5,696.9 Q53.3,681.1 38.8,660.3 Q24.3,639.6 36.4,623.4 Q48.5,607.2 58.2,596.7 Q67.9,586.2 89.5,588.9 Q111.0,591.5 110.9,612.7 Q110.8,633.9 108.4,671.8 Z" fill="#C7B291" opacity="0.89"/>
    <path d="M452.7,620.3 Q450.2,648.8 435.7,658.5 Q421.3,668.1 407.7,685.8 Q394.2,703.5 370.7,680.1 Q347.2,656.8 343.2,619.7 Q339.2,582.7 353.6,561.7 Q368.1,540.7 382.9,509.0 Q397.6,477.2 410.5,473.5 Q423.3,469.7 441.5,491.9 Q459.7,514.1 457.5,552.9 Q455.2,591.7 452.7,620.3 Z" fill="#6A6F43" opacity="0.92"/>
    <path d="M498.5,110.4 Q481.0,140.8 454.5,154.9 Q427.9,169.1 392.7,160.3 Q357.5,151.6 356.1,117.6 Q354.8,83.6 363.6,50.9 Q372.4,18.2 392.5,9.4 Q412.7,0.7 443.7,21.1 Q474.8,41.4 495.4,60.7 Q516.0,79.9 498.5,110.4 Z" fill="#6A6F43" opacity="0.70"/>
    <path d="M67.6,460.6 Q63.2,474.3 59.9,485.1 Q56.5,496.0 46.1,490.0 Q35.6,484.1 26.1,483.5 Q16.6,482.8 17.5,473.2 Q18.3,463.5 13.4,453.9 Q8.4,444.3 15.5,430.7 Q22.7,417.0 32.3,408.6 Q42.0,400.2 47.0,405.1 Q52.1,410.0 63.2,415.2 Q74.2,420.4 73.2,433.6 Q72.1,446.9 67.6,460.6 Z" fill="#C7B291" opacity="0.86"/>
    <path d="M411.0,629.8 Q408.8,660.4 386.2,679.1 Q363.6,697.7 347.9,673.1 Q332.3,648.5 312.9,634.3 Q293.5,620.0 276.8,597.9 Q260.2,575.8 277.1,557.3 Q294.0,538.8 301.5,504.4 Q309.0,469.9 339.9,473.9 Q370.8,478.0 382.0,508.1 Q393.1,538.2 403.2,568.7 Q413.3,599.2 411.0,629.8 Z" fill="#C7B291" opacity="0.70"/>
    <path d="M191.9,699.3 Q187.6,719.1 182.1,736.6 Q176.6,754.1 159.7,752.6 Q142.9,751.2 137.2,739.7 Q131.6,728.2 130.6,706.0 Q129.6,683.8 130.5,670.3 Q131.5,656.9 145.0,644.4 Q158.5,631.9 168.8,621.8 Q179.2,611.6 191.8,627.5 Q204.5,643.3 200.3,661.4 Q196.1,679.5 191.9,699.3 Z" fill="#C7B291" opacity="0.84"/>
    <path d="M604.6,640.5 Q599.8,656.2 588.1,669.5 Q576.3,682.8 566.6,669.4 Q556.8,656.0 543.7,641.6 Q530.5,627.3 541.0,598.2 Q551.6,569.1 564.0,568.0 Q576.4,566.9 589.3,578.0 Q602.1,589.1 605.7,606.9 Q609.3,624.8 604.6,640.5 Z" fill="#6A6F43" opacity="0.81"/>
    <path d="M352.2,448.0 Q350.5,456.6 342.4,481.7 Q334.4,506.8 327.0,493.4 Q319.6,480.0 303.6,486.3 Q287.5,492.6 278.5,473.6 Q269.5,454.5 272.3,442.5 Q275.0,430.5 283.3,412.9 Q291.7,395.4 302.5,386.8 Q313.4,378.3 325.1,381.1 Q336.9,383.9 344.2,393.2 Q351.5,402.4 352.7,420.9 Q353.9,439.4 352.2,448.0 Z" fill="#C7B291" opacity="0.77"/>
    <path d="M249.0,418.5 Q249.0,433.3 234.3,440.0 Q219.6,446.8 202.3,455.3 Q185.1,463.8 173.1,447.1 Q161.1,430.5 157.3,397.0 Q153.6,363.6 170.0,359.6 Q186.3,355.6 199.7,348.3 Q213.0,340.9 221.5,352.7 Q230.0,364.5 239.5,384.1 Q249.0,403.8 249.0,418.5 Z" fill="#E9E2D2" opacity="0.86"/>
    <path d="M174.2,42.6 Q182.0,75.1 141.3,91.2 Q100.6,107.4 89.0,87.2 Q77.4,67.1 64.5,33.7 Q51.6,0.2 59.2,-31.4 Q66.8,-63.0 86.6,-56.4 Q106.4,-49.8 142.1,-56.8 Q177.8,-63.9 172.1,-26.9 Q166.4,10.2 174.2,42.6 Z" fill="#6A6F43" opacity="0.76"/>
    <path d="M581.2,779.4 Q566.5,808.1 550.0,821.8 Q533.5,835.5 518.9,827.3 Q504.3,819.0 488.1,818.0 Q472.0,817.1 462.8,791.8 Q453.6,766.6 466.8,739.7 Q480.0,712.9 493.4,687.5 Q506.8,662.1 522.1,657.7 Q537.5,653.2 557.4,684.2 Q577.3,715.2 586.6,733.0 Q595.9,750.7 581.2,779.4 Z" fill="#E9E2D2" opacity="0.82"/>
    <path d="M638.1,52.0 Q626.3,65.5 613.5,78.8 Q600.7,92.1 584.5,86.4 Q568.4,80.7 562.4,67.0 Q556.4,53.2 554.2,28.9 Q552.0,4.5 563.0,-9.0 Q573.9,-22.6 586.5,-18.0 Q599.2,-13.4 611.5,-3.4 Q623.8,6.6 636.8,22.6 Q649.8,38.5 638.1,52.0 Z" fill="#6A6F43" opacity="0.72"/>
    <path d="M827.7,368.3 Q827.6,384.9 808.5,406.4 Q789.5,427.9 777.7,429.5 Q765.8,431.1 759.1,407.5 Q752.4,383.9 743.7,367.7 Q734.9,351.5 736.7,334.0 Q738.5,316.4 738.3,291.2 Q738.2,265.9 755.6,255.0 Q773.0,244.1 781.5,266.8 Q789.9,289.5 806.9,292.9 Q824.0,296.2 825.9,324.0 Q827.9,351.8 827.7,368.3 Z" fill="#C7B291" opacity="0.90"/>
    <path d="M666.3,670.5 Q673.4,715.3 640.3,720.4 Q607.3,725.6 583.1,720.4 Q559.0,715.2 539.7,707.5 Q520.4,699.8 513.6,647.5 Q506.8,595.2 533.9,583.7 Q560.9,572.2 578.6,569.2 Q596.3,566.3 618.4,585.6 Q640.4,604.9 649.8,615.3 Q659.2,625.7 666.3,670.5 Z" fill="#E9E2D2" opacity="0.79"/>
    <path d="M168.1,502.7 Q169.1,526.5 158.3,535.9 Q147.4,545.2 125.3,545.9 Q103.2,546.6 98.5,535.4 Q93.7,524.3 82.4,503.4 Q71.2,482.4 83.4,469.6 Q95.6,456.9 107.1,446.2 Q118.5,435.5 132.3,430.3 Q146.0,425.1 153.0,432.9 Q159.9,440.8 163.5,459.8 Q167.0,478.8 168.1,502.7 Z" fill="#E9E2D2" opacity="0.85"/>
    <path d="M633.6,773.2 Q629.0,806.1 611.0,820.2 Q592.9,834.2 575.0,838.5 Q557.2,842.8 543.9,802.3 Q530.6,761.9 522.2,744.6 Q513.7,727.3 523.9,696.5 Q534.1,665.8 565.7,667.3 Q597.2,668.9 610.9,691.5 Q624.6,714.1 631.4,727.2 Q638.1,740.2 633.6,773.2 Z" fill="#E9E2D2" opacity="0.83"/>
    <path d="M852.1,184.7 Q834.9,213.6 805.3,245.3 Q775.6,276.9 748.9,227.9 Q722.1,179.0 728.1,135.4 Q734.1,91.7 756.1,52.2 Q778.1,12.7 799.5,27.6 Q820.8,42.5 845.1,99.1 Q869.4,155.8 852.1,184.7 Z" fill="#C7B291" opacity="0.80"/>
    <path d="M704.0,439.5 Q704.1,457.1 688.0,459.3 Q671.9,461.4 663.1,464.5 Q654.4,467.5 645.6,461.3 Q636.9,455.0 634.5,440.9 Q632.1,426.9 633.5,415.4 Q635.0,403.9 643.4,386.1 Q651.7,368.4 661.9,367.4 Q672.1,366.4 684.5,381.0 Q696.8,395.7 700.4,408.8 Q703.9,422.0 704.0,439.5 Z" fill="#6A6F43" opacity="0.76"/>
    <path d="M555.7,89.3 Q542.6,108.1 520.2,127.4 Q497.8,146.7 477.5,132.5 Q457.2,118.4 450.2,92.8 Q443.2,67.2 453.5,40.4 Q463.8,13.5 482.3,7.6 Q500.9,1.6 524.6,1.8 Q548.3,2.0 558.5,36.3 Q568.7,70.6 555.7,89.3 Z" fill="#6A6F43" opacity="0.92"/>
    <path d="M711.0,761.8 Q704.7,766.3 697.7,774.1 Q690.7,781.8 681.8,784.4 Q672.8,786.9 666.0,780.0 Q659.1,773.2 660.6,764.8 Q662.1,756.4 659.7,745.2 Q657.3,734.0 666.8,728.6 Q676.3,723.2 683.7,718.4 Q691.0,713.7 696.4,724.9 Q701.9,736.1 709.6,746.7 Q717.3,757.3 711.0,761.8 Z" fill="#6A6F43" opacity="0.61"/>
    <path d="M803.6,681.3 Q801.8,686.4 797.7,688.3 Q793.7,690.2 791.6,687.1 Q789.6,683.9 786.8,677.3 Q784.1,670.7 789.7,669.7 Q795.3,668.7 799.3,667.6 Q803.2,666.4 804.3,671.3 Q805.3,676.2 803.6,681.3 Z" fill="#6A6F43" opacity="0.88"/>
    <path d="M644.6,430.2 Q644.4,441.9 636.7,442.9 Q629.1,444.0 621.3,448.0 Q613.5,451.9 611.0,449.1 Q608.6,446.2 602.6,439.3 Q596.7,432.5 597.6,419.5 Q598.5,406.5 599.4,394.1 Q600.4,381.6 608.4,382.6 Q616.4,383.6 624.1,383.5 Q631.7,383.3 638.1,389.2 Q644.5,395.0 644.7,406.7 Q644.8,418.5 644.6,430.2 Z" fill="#6A6F43" opacity="0.72"/>
    <path d="M622.2,771.7 Q614.6,777.2 611.2,790.0 Q607.9,802.8 599.8,798.5 Q591.7,794.3 581.4,792.0 Q571.2,789.8 570.8,775.5 Q570.4,761.2 569.8,747.1 Q569.2,733.0 576.1,725.1 Q583.0,717.2 594.9,727.1 Q606.9,737.1 611.1,738.5 Q615.2,739.9 622.5,753.0 Q629.7,766.1 622.2,771.7 Z" fill="#C7B291" opacity="0.78"/>
    <path d="M704.1,473.0 Q693.8,488.0 680.1,492.4 Q666.4,496.8 655.4,491.2 Q644.4,485.5 644.3,461.8 Q644.2,438.1 660.2,433.6 Q676.3,429.2 686.4,433.6 Q696.5,438.1 705.4,448.1 Q714.4,458.0 704.1,473.0 Z" fill="#6A6F43" opacity="0.77"/>
    <path d="M703.2,495.5 Q701.0,508.1 690.2,510.3 Q679.3,512.5 671.1,504.3 Q663.0,496.1 656.2,478.7 Q649.3,461.4 661.3,453.3 Q673.2,445.3 685.9,446.9 Q698.6,448.6 702.0,465.8 Q705.4,483.0 703.2,495.5 Z" fill="#6A6F43" opacity="0.80"/>
    <path d="M402.7,364.6 Q398.9,372.2 392.5,376.2 Q386.2,380.3 379.1,384.5 Q371.9,388.6 369.2,379.2 Q366.5,369.8 366.7,361.5 Q367.0,353.2 370.1,348.1 Q373.3,342.9 380.6,340.6 Q388.0,338.3 393.8,339.0 Q399.5,339.6 403.0,348.3 Q406.5,357.1 402.7,364.6 Z" fill="#E9E2D2" opacity="0.86"/>
    <path d="M745.6,44.1 Q744.2,52.7 737.2,55.6 Q730.2,58.6 723.4,66.6 Q716.7,74.6 710.2,64.7 Q703.6,54.9 699.1,47.5 Q694.5,40.0 695.0,29.4 Q695.5,18.7 692.3,9.2 Q689.0,-0.4 698.5,-6.3 Q707.9,-12.3 719.4,-12.9 Q730.8,-13.5 740.1,-4.0 Q749.3,5.5 748.2,20.5 Q747.1,35.6 745.6,44.1 Z" fill="#6A6F43" opacity="0.75"/>
    <path d="M693.5,477.6 Q686.9,491.6 673.5,496.1 Q660.0,500.6 648.0,487.2 Q636.1,473.9 633.8,457.4 Q631.5,440.9 645.6,418.9 Q659.6,396.9 670.2,410.6 Q680.7,424.2 690.4,443.9 Q700.2,463.6 693.5,477.6 Z" fill="#6A6F43" opacity="0.89"/>
    <path d="M249.8,89.0 Q239.7,95.7 233.3,99.1 Q227.0,102.4 219.0,99.9 Q211.1,97.4 207.6,90.5 Q204.2,83.6 202.2,76.4 Q200.2,69.2 200.3,53.4 Q200.4,37.6 216.0,37.6 Q231.5,37.7 238.2,42.8 Q244.8,47.9 252.3,65.1 Q259.8,82.3 249.8,89.0 Z" fill="#6A6F43" opacity="0.80"/>
    <path d="M545.9,121.0 Q545.0,128.6 537.7,127.6 Q530.4,126.6 523.8,134.9 Q517.2,143.1 511.4,135.6 Q505.7,128.0 499.1,121.4 Q492.6,114.8 492.6,107.7 Q492.5,100.6 496.9,93.0 Q501.3,85.4 509.2,83.9 Q517.0,82.4 525.7,80.8 Q534.3,79.3 536.8,86.0 Q539.3,92.7 543.1,103.1 Q546.9,113.4 545.9,121.0 Z" fill="#6A6F43" opacity="0.63"/>
    <path d="M422.2,678.3 Q428.1,691.5 417.1,699.8 Q406.1,708.2 393.8,714.8 Q381.5,721.4 378.3,705.9 Q375.1,690.5 368.0,687.4 Q361.0,684.3 362.0,671.4 Q363.0,658.6 367.7,645.4 Q372.5,632.2 377.3,628.6 Q382.2,625.1 394.3,632.8 Q406.5,640.5 413.7,645.9 Q420.8,651.2 418.6,658.2 Q416.4,665.1 422.2,678.3 Z" fill="#6A6F43" opacity="0.84"/>
    <path d="M608.7,56.7 Q604.7,61.5 601.6,62.2 Q598.6,63.0 594.0,62.3 Q589.4,61.6 588.8,55.7 Q588.3,49.7 593.0,45.0 Q597.8,40.3 603.3,41.7 Q608.8,43.1 610.7,47.6 Q612.7,52.0 608.7,56.7 Z" fill="#6A6F43" opacity="0.81"/>
    <path d="M87.0,223.5 Q85.7,231.8 77.9,233.8 Q70.1,235.7 62.8,235.7 Q55.5,235.6 54.4,227.5 Q53.4,219.5 47.9,214.3 Q42.5,209.1 51.3,203.3 Q60.1,197.4 66.8,193.8 Q73.4,190.3 77.3,194.4 Q81.2,198.6 84.8,206.9 Q88.3,215.3 87.0,223.5 Z" fill="#6A6F43" opacity="0.84"/>
    <path d="M703.3,169.0 Q694.4,177.9 685.0,184.6 Q675.6,191.2 670.0,184.5 Q664.4,177.8 660.9,163.8 Q657.4,149.8 665.8,142.8 Q674.1,135.9 684.6,143.1 Q695.0,150.4 703.6,155.3 Q712.1,160.1 703.3,169.0 Z" fill="#6A6F43" opacity="0.77"/>
    <path d="M174.0,36.9 Q168.0,44.3 162.7,48.0 Q157.4,51.7 151.0,47.3 Q144.7,43.0 144.9,33.7 Q145.1,24.5 149.0,18.0 Q152.9,11.5 159.8,14.0 Q166.6,16.4 173.3,23.0 Q179.9,29.6 174.0,36.9 Z" fill="#6A6F43" opacity="0.82"/>
    <path d="M370.2,577.6 Q369.5,581.1 366.6,586.9 Q363.7,592.6 361.3,589.4 Q358.9,586.3 355.4,584.0 Q351.9,581.7 352.3,576.6 Q352.7,571.5 351.7,566.2 Q350.7,560.8 354.2,561.2 Q357.6,561.6 361.0,561.1 Q364.5,560.7 368.5,563.0 Q372.4,565.3 371.7,569.7 Q370.9,574.1 370.2,577.6 Z" fill="#6A6F43" opacity="0.66"/>
    <path d="M687.7,622.5 Q686.8,627.4 683.8,633.3 Q680.8,639.2 677.0,636.5 Q673.2,633.8 669.6,634.8 Q666.1,635.9 664.2,628.9 Q662.3,621.9 660.5,619.1 Q658.7,616.3 661.0,611.0 Q663.2,605.6 667.5,604.0 Q671.9,602.4 676.4,605.5 Q680.9,608.6 684.8,610.3 Q688.7,612.1 688.7,614.8 Q688.6,617.5 687.7,622.5 Z" fill="#6A6F43" opacity="0.78"/>
    <path d="M724.1,455.1 Q725.8,463.1 718.7,465.5 Q711.6,468.0 702.0,473.0 Q692.3,478.0 685.0,470.9 Q677.7,463.8 679.7,447.4 Q681.7,431.1 688.7,427.3 Q695.6,423.5 703.2,414.3 Q710.8,405.1 720.1,412.4 Q729.4,419.7 726.0,433.4 Q722.5,447.2 724.1,455.1 Z" fill="#6A6F43" opacity="0.63"/>
    <path d="M541.8,462.6 Q537.6,477.6 525.6,488.1 Q513.5,498.5 502.3,489.4 Q491.0,480.3 491.2,466.1 Q491.4,452.0 484.7,431.7 Q478.0,411.4 487.5,397.6 Q497.0,383.8 507.9,387.3 Q518.8,390.8 527.1,401.1 Q535.3,411.4 540.7,429.5 Q546.0,447.5 541.8,462.6 Z" fill="#6A6F43" opacity="0.85"/>
    <path d="M620.7,200.4 Q613.3,209.0 609.1,219.5 Q604.8,230.1 597.5,230.7 Q590.1,231.4 584.3,224.4 Q578.6,217.3 572.2,211.8 Q565.9,206.3 571.4,198.9 Q577.0,191.6 580.1,183.0 Q583.1,174.4 589.6,170.5 Q596.0,166.5 601.1,171.0 Q606.3,175.4 611.0,179.0 Q615.7,182.6 621.9,187.2 Q628.1,191.8 620.7,200.4 Z" fill="#C7B291" opacity="0.71"/>
    <path d="M160.6,538.4 Q155.3,558.2 144.8,562.4 Q134.3,566.6 123.5,561.2 Q112.8,555.8 104.1,540.9 Q95.5,526.1 101.9,511.5 Q108.4,496.9 120.8,493.3 Q133.1,489.8 138.7,495.2 Q144.2,500.7 155.0,509.6 Q165.9,518.6 160.6,538.4 Z" fill="#C7B291" opacity="0.92"/>
    <path d="M604.7,695.9 Q595.4,707.1 588.7,714.9 Q581.9,722.6 574.0,720.9 Q566.0,719.3 558.6,722.6 Q551.2,725.9 545.4,716.6 Q539.6,707.2 541.4,696.1 Q543.2,685.0 546.0,676.4 Q548.8,667.8 560.9,667.1 Q572.9,666.3 580.4,664.9 Q587.8,663.5 595.2,667.7 Q602.5,672.0 608.3,678.3 Q614.1,684.6 604.7,695.9 Z" fill="#6A6F43" opacity="0.82"/>
    <path d="M228.6,481.0 Q224.8,488.9 216.6,495.4 Q208.4,501.8 200.9,499.8 Q193.5,497.8 188.5,489.6 Q183.4,481.3 179.7,470.7 Q176.1,460.1 181.8,452.6 Q187.5,445.0 200.0,440.5 Q212.5,435.9 222.4,438.9 Q232.3,441.8 232.4,457.5 Q232.5,473.2 228.6,481.0 Z" fill="#C7B291" opacity="0.68"/>
    <path d="M497.9,168.5 Q492.1,183.0 488.9,194.5 Q485.6,205.9 474.2,206.1 Q462.9,206.2 458.5,194.6 Q454.2,183.0 448.4,177.6 Q442.7,172.1 438.1,160.6 Q433.6,149.1 445.0,144.3 Q456.5,139.6 460.4,135.2 Q464.3,130.7 474.4,125.1 Q484.6,119.5 487.7,129.2 Q490.9,138.8 497.3,146.4 Q503.7,153.9 497.9,168.5 Z" fill="#C7B291" opacity="0.76"/>
    <path d="M607.9,228.6 Q607.2,250.2 598.0,255.3 Q588.8,260.4 579.9,255.9 Q571.1,251.4 563.4,241.5 Q555.8,231.6 552.2,224.9 Q548.6,218.2 547.1,205.7 Q545.7,193.2 559.2,184.5 Q572.6,175.7 579.0,169.7 Q585.4,163.7 593.8,172.1 Q602.1,180.5 605.4,193.7 Q608.6,207.0 607.9,228.6 Z" fill="#6A6F43" opacity="0.80"/>
    <path d="M692.9,271.6 Q692.4,275.4 689.2,279.0 Q685.9,282.6 682.2,283.9 Q678.4,285.2 673.4,282.7 Q668.4,280.2 666.2,275.6 Q664.0,271.0 664.8,267.2 Q665.6,263.4 668.4,260.5 Q671.3,257.7 674.8,256.3 Q678.3,254.9 680.7,256.5 Q683.0,258.1 685.8,259.7 Q688.6,261.3 691.0,264.6 Q693.4,267.9 692.9,271.6 Z" fill="#C7B291" opacity="0.69"/>
    <path d="M618.1,4.9 Q615.5,9.1 611.8,14.7 Q608.0,20.2 598.4,20.9 Q588.9,21.6 584.7,13.9 Q580.6,6.1 583.8,-0.2 Q587.0,-6.5 591.8,-12.8 Q596.5,-19.1 600.4,-21.2 Q604.3,-23.3 613.1,-16.9 Q621.9,-10.5 621.3,-4.9 Q620.6,0.7 618.1,4.9 Z" fill="#E9E2D2" opacity="0.61"/>
    <path d="M310.3,328.4 Q310.3,331.8 303.7,333.8 Q297.1,335.8 292.4,337.0 Q287.6,338.2 284.5,334.0 Q281.5,329.8 280.1,326.5 Q278.8,323.2 280.3,316.4 Q281.9,309.6 286.1,307.3 Q290.3,305.0 294.1,304.0 Q297.9,303.0 304.3,307.3 Q310.6,311.6 310.4,318.3 Q310.2,324.9 310.3,328.4 Z" fill="#C7B291" opacity="0.63"/>
    <path d="M673.6,734.8 Q672.4,739.3 667.1,742.0 Q661.8,744.7 660.2,738.5 Q658.7,732.3 657.0,728.1 Q655.2,724.0 660.4,720.7 Q665.6,717.5 668.9,719.3 Q672.1,721.0 673.4,725.7 Q674.8,730.4 673.6,734.8 Z" fill="#E9E2D2" opacity="0.66"/>
  </g>
  <rect width="800" height="800" filter="url(#grain)" opacity="0.5"/>
</svg>
